<svg width="325" height="166" viewBox="0 0 325 166" fill="none" xmlns="http://www.w3.org/2000/svg">
<path d="M11.6792 115.347C15.7697 115.347 19.3039 116.084 22.2821 117.559C25.2961 119 27.5924 121.075 29.1712 123.785C30.7858 126.495 31.5932 129.685 31.5932 133.356C31.5932 137.026 30.7858 140.216 29.1712 142.926C27.5924 145.602 25.2961 147.66 22.2821 149.101C19.3039 150.507 15.7697 151.21 11.6792 151.21H0V115.347H11.6792ZM11.6792 147.351C16.5232 147.351 20.2189 146.133 22.7664 143.698C25.314 141.228 26.5878 137.781 26.5878 133.356C26.5878 128.896 25.2961 125.414 22.7126 122.91C20.1651 120.406 16.4873 119.154 11.6792 119.154H4.89775V147.351H11.6792Z" fill="white"/>
<path d="M50.9167 151.673C48.1539 151.673 45.6422 151.073 43.3817 149.872C41.1571 148.672 39.3989 146.974 38.1072 144.778C36.8514 142.549 36.2235 139.976 36.2235 137.06C36.2235 134.179 36.8693 131.64 38.161 129.445C39.4886 127.215 41.2827 125.517 43.5432 124.351C45.8037 123.15 48.3333 122.55 51.132 122.55C53.9307 122.55 56.4603 123.15 58.7208 124.351C60.9813 125.517 62.7574 127.198 64.0491 129.394C65.3767 131.589 66.0405 134.144 66.0405 137.06C66.0405 139.976 65.3588 142.549 63.9953 144.778C62.6677 146.974 60.8557 148.672 58.5594 149.872C56.263 151.073 53.7154 151.673 50.9167 151.673ZM50.9167 147.557C52.6749 147.557 54.3254 147.162 55.8683 146.373C57.4112 145.584 58.6491 144.401 59.582 142.823C60.5507 141.245 61.0351 139.324 61.0351 137.06C61.0351 134.796 60.5687 132.875 59.6358 131.297C58.7029 129.719 57.4829 128.553 55.9759 127.798C54.4689 127.01 52.8363 126.615 51.0782 126.615C49.2841 126.615 47.6336 127.01 46.1266 127.798C44.6555 128.553 43.4714 129.719 42.5744 131.297C41.6774 132.875 41.2289 134.796 41.2289 137.06C41.2289 139.359 41.6594 141.297 42.5206 142.875C43.4176 144.452 44.6017 145.636 46.0728 146.425C47.5439 147.18 49.1586 147.557 50.9167 147.557Z" fill="white"/>
<path d="M99.3909 136.031C99.3909 136.923 99.3371 137.866 99.2294 138.861H75.6556C75.835 141.64 76.8218 143.818 78.6158 145.396C80.4457 146.939 82.6524 147.711 85.2358 147.711C87.3528 147.711 89.111 147.248 90.5103 146.322C91.9456 145.362 92.9502 144.092 93.5243 142.514H98.7988C98.0095 145.224 96.4307 147.437 94.0626 149.152C91.6944 150.833 88.7522 151.673 85.2358 151.673C82.4371 151.673 79.9255 151.073 77.7009 149.872C75.5121 148.672 73.7898 146.974 72.534 144.778C71.2782 142.549 70.6502 139.976 70.6502 137.06C70.6502 134.144 71.2602 131.589 72.4802 129.394C73.7001 127.198 75.4045 125.517 77.5932 124.351C79.8178 123.15 82.3654 122.55 85.2358 122.55C88.0346 122.55 90.5103 123.133 92.6632 124.3C94.8161 125.466 96.4666 127.078 97.6148 129.136C98.7988 131.16 99.3909 133.458 99.3909 136.031ZM94.3317 135.054C94.3317 133.27 93.919 131.743 93.0938 130.474C92.2685 129.171 91.1383 128.193 89.703 127.541C88.3037 126.855 86.7428 126.512 85.0206 126.512C82.5448 126.512 80.4278 127.267 78.6696 128.776C76.9473 130.285 75.9606 132.378 75.7095 135.054H94.3317Z" fill="white"/>
<path d="M128.457 151.57C123.9 151.57 120.132 150.558 117.154 148.535C114.212 146.476 112.615 143.475 112.364 139.53H125.066C125.245 141.623 126.214 142.669 127.972 142.669C128.618 142.669 129.156 142.532 129.587 142.257C130.053 141.948 130.286 141.485 130.286 140.868C130.286 140.01 129.802 139.324 128.833 138.81C127.864 138.261 126.357 137.643 124.312 136.957C121.872 136.134 119.845 135.328 118.23 134.539C116.652 133.75 115.288 132.601 114.14 131.092C112.992 129.582 112.436 127.644 112.472 125.277C112.472 122.91 113.099 120.904 114.355 119.257C115.647 117.576 117.387 116.307 119.576 115.449C121.801 114.592 124.294 114.163 127.057 114.163C131.722 114.163 135.417 115.192 138.144 117.25C140.907 119.309 142.36 122.207 142.504 125.946H129.641C129.605 124.917 129.336 124.18 128.833 123.734C128.331 123.288 127.721 123.065 127.003 123.065C126.501 123.065 126.088 123.236 125.765 123.579C125.443 123.888 125.281 124.334 125.281 124.917C125.281 125.74 125.748 126.426 126.68 126.975C127.649 127.49 129.174 128.124 131.255 128.879C133.659 129.737 135.633 130.56 137.176 131.349C138.754 132.138 140.118 133.235 141.266 134.642C142.414 136.048 142.988 137.815 142.988 139.942C142.988 142.171 142.414 144.178 141.266 145.962C140.118 147.711 138.449 149.083 136.261 150.078C134.072 151.073 131.471 151.57 128.457 151.57Z" fill="white"/>
<path d="M145.572 136.7C145.572 133.647 146.11 131.006 147.186 128.776C148.299 126.512 149.806 124.797 151.707 123.631C153.609 122.43 155.744 121.83 158.112 121.83C160.086 121.83 161.79 122.224 163.225 123.013C164.66 123.768 165.755 124.814 166.508 126.152V122.19H178.403V151.21H166.508V147.248C165.755 148.586 164.66 149.649 163.225 150.438C161.79 151.193 160.086 151.57 158.112 151.57C155.744 151.57 153.609 150.987 151.707 149.821C149.806 148.62 148.299 146.905 147.186 144.675C146.11 142.411 145.572 139.753 145.572 136.7ZM166.508 136.7C166.508 135.156 166.096 133.956 165.27 133.098C164.445 132.241 163.387 131.812 162.095 131.812C160.803 131.812 159.745 132.241 158.919 133.098C158.094 133.956 157.682 135.156 157.682 136.7C157.682 138.244 158.094 139.444 158.919 140.302C159.745 141.159 160.803 141.588 162.095 141.588C163.387 141.588 164.445 141.159 165.27 140.302C166.096 139.444 166.508 138.244 166.508 136.7Z" fill="white"/>
<path d="M205.028 121.984C208.508 121.984 211.217 123.099 213.155 125.329C215.128 127.558 216.115 130.577 216.115 134.385V151.21H204.22V135.825C204.22 134.453 203.826 133.373 203.036 132.584C202.283 131.76 201.26 131.349 199.968 131.349C198.641 131.349 197.6 131.76 196.847 132.584C196.093 133.373 195.716 134.453 195.716 135.825V151.21H183.768V122.19H195.716V126.615C196.649 125.243 197.887 124.128 199.43 123.27C201.009 122.413 202.875 121.984 205.028 121.984Z" fill="white"/>
<path d="M232.222 121.83C234.195 121.83 235.899 122.224 237.335 123.013C238.77 123.768 239.864 124.814 240.618 126.152V122.19H252.512V150.696C252.512 153.406 251.992 155.875 250.951 158.105C249.911 160.335 248.225 162.118 245.892 163.456C243.596 164.794 240.636 165.463 237.012 165.463C232.132 165.463 228.257 164.365 225.386 162.17C222.552 160.009 220.937 157.059 220.542 153.32H232.275C232.598 154.829 233.89 155.584 236.151 155.584C237.55 155.584 238.644 155.241 239.434 154.555C240.223 153.869 240.618 152.582 240.618 150.696V147.248C239.864 148.586 238.77 149.649 237.335 150.438C235.899 151.193 234.195 151.57 232.222 151.57C229.854 151.57 227.719 150.987 225.817 149.821C223.915 148.62 222.408 146.905 221.296 144.675C220.219 142.411 219.681 139.753 219.681 136.7C219.681 133.647 220.219 131.006 221.296 128.776C222.408 126.512 223.915 124.797 225.817 123.631C227.719 122.43 229.854 121.83 232.222 121.83ZM240.618 136.7C240.618 135.156 240.205 133.956 239.38 133.098C238.555 132.241 237.496 131.812 236.204 131.812C234.913 131.812 233.854 132.241 233.029 133.098C232.204 133.956 231.791 135.156 231.791 136.7C231.791 138.244 232.204 139.444 233.029 140.302C233.854 141.159 234.913 141.588 236.204 141.588C237.496 141.588 238.555 141.159 239.38 140.302C240.205 139.444 240.618 138.244 240.618 136.7Z" fill="white"/>
<path d="M290.009 122.19V151.21H278.061V146.785C277.128 148.157 275.872 149.272 274.293 150.13C272.75 150.987 270.902 151.416 268.75 151.416C265.269 151.416 262.542 150.301 260.569 148.071C258.631 145.842 257.662 142.823 257.662 139.015V122.19H269.557V137.575C269.557 138.947 269.934 140.045 270.687 140.868C271.477 141.657 272.517 142.051 273.809 142.051C275.136 142.051 276.177 141.657 276.93 140.868C277.684 140.045 278.061 138.947 278.061 137.575V122.19H290.009Z" fill="white"/>
<path d="M324.792 136.443C324.792 137.232 324.738 137.986 324.63 138.707H305.416C305.596 141.211 306.69 142.463 308.699 142.463C309.991 142.463 310.924 141.897 311.498 140.765H324.146C323.715 142.823 322.801 144.675 321.401 146.322C320.038 147.934 318.297 149.221 316.18 150.181C314.099 151.107 311.803 151.57 309.291 151.57C306.277 151.57 303.586 150.97 301.218 149.769C298.886 148.569 297.056 146.854 295.728 144.624C294.437 142.36 293.791 139.719 293.791 136.7C293.791 133.681 294.437 131.057 295.728 128.828C297.056 126.564 298.886 124.831 301.218 123.631C303.586 122.43 306.277 121.83 309.291 121.83C312.305 121.83 314.978 122.43 317.311 123.631C319.679 124.797 321.509 126.478 322.801 128.673C324.128 130.869 324.792 133.458 324.792 136.443ZM312.682 133.716C312.682 132.755 312.359 132.035 311.713 131.555C311.067 131.04 310.26 130.783 309.291 130.783C307.174 130.783 305.936 131.76 305.578 133.716H312.682Z" fill="white"/>
<path fill-rule="evenodd" clip-rule="evenodd" d="M161.803 0.000368528C151.906 0.000367701 143.882 7.67082 143.882 17.1328C143.882 26.5948 161.803 46.3154 161.803 46.3154C161.803 46.3154 179.724 26.5948 179.724 17.1328C179.724 7.67083 171.7 0.000369355 161.803 0.000368528ZM161.807 9.11339C158.419 9.11339 155.674 11.7385 155.674 14.9767C155.674 18.215 158.419 20.8401 161.807 20.8401C165.194 20.8401 167.94 18.215 167.94 14.9767C167.94 11.7385 165.194 9.11339 161.807 9.11339Z" fill="white"/>
<path d="M171.418 66.2889C171.418 71.3597 167.118 75.4704 161.814 75.4704C156.51 75.4704 152.21 71.3597 152.21 66.2889C152.21 61.2181 161.814 50.6494 161.814 50.6494C161.814 50.6494 171.418 61.2181 171.418 66.2889Z" fill="white"/>
</svg>
