<svg width="158" height="61" viewBox="0 0 158 61" fill="none" xmlns="http://www.w3.org/2000/svg">
<path d="M12.0654 32.6172C12.0654 32.6172 0.000239633 18.7291 1.79669e-06 12.0654C2.37924e-06 5.40181 5.40182 -1.63735e-06 12.0654 -1.05479e-06C18.729 6.05629e-05 24.1309 5.40185 24.1309 12.0654C24.1306 18.7215 12.0931 32.5854 12.0654 32.6172ZM12.0664 14.6768C14.3468 14.6768 16.1952 12.8283 16.1953 10.5479C16.1953 8.26732 14.3469 6.41797 12.0664 6.41797C9.78589 6.41799 7.9375 8.26733 7.9375 10.5479C7.93765 12.8282 9.78598 14.6767 12.0664 14.6768Z" fill="#B20000"/>
<path d="M18.5322 46.6841C18.5322 50.2552 15.6372 53.1502 12.066 53.1502C8.4949 53.1502 5.59991 50.2552 5.59991 46.6841C5.59991 43.1129 12.066 35.6699 12.066 35.6699C12.066 35.6699 18.5322 43.1129 18.5322 46.6841Z" fill="#B20000"/>
<path d="M53.645 2.70605C55.7984 2.70605 57.6591 3.11218 59.2269 3.92444C60.8136 4.7178 62.0226 5.86063 62.8537 7.35291C63.7038 8.84519 64.1288 10.6019 64.1288 12.6231C64.1288 14.6443 63.7038 16.4011 62.8537 17.8933C62.0226 19.3667 60.8136 20.5001 59.2269 21.2935C57.6591 22.068 55.7984 22.4552 53.645 22.4552H47.4964V2.70605H53.645ZM53.645 20.3301C56.1951 20.3301 58.1407 19.6595 59.4819 18.3184C60.8231 16.9583 61.4937 15.0599 61.4937 12.6231C61.4937 10.1675 60.8136 8.25017 59.4536 6.87122C58.1124 5.49228 56.1762 4.80281 53.645 4.80281H50.0749V20.3301H53.645Z" fill="#B20000"/>
<path d="M74.3017 22.7102C72.8472 22.7102 71.525 22.3796 70.3349 21.7185C69.1637 21.0574 68.2382 20.1223 67.5581 18.9134C66.897 17.6856 66.5664 16.2688 66.5664 14.6632C66.5664 13.0765 66.9064 11.6786 67.5865 10.4697C68.2854 9.24188 69.2299 8.30684 70.4199 7.66459C71.61 7.00345 72.9417 6.67288 74.4151 6.67288C75.8885 6.67288 77.2202 7.00345 78.4102 7.66459C79.6003 8.30684 80.5353 9.23243 81.2154 10.4414C81.9143 11.6503 82.2637 13.0576 82.2637 14.6632C82.2637 16.2688 81.9048 17.6856 81.187 18.9134C80.4881 20.1223 79.5342 21.0574 78.3252 21.7185C77.1163 22.3796 75.7751 22.7102 74.3017 22.7102ZM74.3017 20.4434C75.2273 20.4434 76.0963 20.2262 76.9085 19.7918C77.7208 19.3573 78.3725 18.7056 78.8636 17.8367C79.3736 16.9677 79.6286 15.9099 79.6286 14.6632C79.6286 13.4165 79.3831 12.3587 78.8919 11.4897C78.4008 10.6208 77.7585 9.97857 76.9652 9.563C76.1718 9.12854 75.3123 8.91131 74.3867 8.91131C73.4423 8.91131 72.5733 9.12854 71.78 9.563C71.0055 9.97857 70.3821 10.6208 69.9099 11.4897C69.4376 12.3587 69.2015 13.4165 69.2015 14.6632C69.2015 15.9288 69.4282 16.9961 69.8816 17.865C70.3538 18.7339 70.9772 19.3856 71.7516 19.8201C72.5261 20.2357 73.3761 20.4434 74.3017 20.4434Z" fill="#B20000"/>
<path d="M99.8212 14.0965C99.8212 14.5877 99.7928 15.1071 99.7362 15.6549H87.3256C87.4201 17.185 87.9396 18.3845 88.884 19.2534C89.8474 20.1034 91.0091 20.5285 92.3692 20.5285C93.4837 20.5285 94.4093 20.2734 95.146 19.7634C95.9016 19.2345 96.4305 18.5356 96.7327 17.6667H99.5095C99.0939 19.1589 98.2628 20.3773 97.016 21.3218C95.7693 22.2474 94.2204 22.7102 92.3692 22.7102C90.8958 22.7102 89.5735 22.3796 88.4024 21.7185C87.2501 21.0574 86.3434 20.1223 85.6822 18.9134C85.0211 17.6856 84.6905 16.2688 84.6905 14.6632C84.6905 13.0576 85.0117 11.6503 85.6539 10.4414C86.2962 9.23243 87.1934 8.30684 88.3457 7.66459C89.5168 7.00345 90.858 6.67288 92.3692 6.67288C93.8426 6.67288 95.146 6.99401 96.2793 7.63626C97.4127 8.2785 98.2816 9.16632 98.8861 10.2997C99.5095 11.4142 99.8212 12.6798 99.8212 14.0965ZM97.1577 13.5582C97.1577 12.5759 96.9405 11.7353 96.506 11.0364C96.0716 10.3186 95.4765 9.78023 94.7209 9.42133C93.9842 9.04354 93.1626 8.85464 92.2558 8.85464C90.9525 8.85464 89.838 9.27021 88.9124 10.1014C88.0057 10.9325 87.4862 12.0848 87.354 13.5582H97.1577Z" fill="#B20000"/>
<path d="M54.58 53.3492C52.1811 53.3492 50.1976 52.792 48.6298 51.6775C47.0808 50.5441 46.2403 48.8913 46.108 46.719H52.795C52.8894 47.8712 53.3994 48.4474 54.325 48.4474C54.665 48.4474 54.9484 48.3718 55.1751 48.2207C55.4206 48.0507 55.5434 47.7957 55.5434 47.4557C55.5434 46.9834 55.2884 46.6056 54.7784 46.3223C54.2684 46.02 53.475 45.68 52.3983 45.3022C51.1138 44.8489 50.0465 44.405 49.1965 43.9705C48.3653 43.5361 47.6475 42.9033 47.0431 42.0721C46.4386 41.241 46.1458 40.1737 46.1647 38.8703C46.1647 37.5669 46.4953 36.4619 47.1564 35.5552C47.8364 34.6296 48.7526 33.9307 49.9049 33.4584C51.076 32.9862 52.3888 32.7501 53.8433 32.7501C56.299 32.7501 58.2446 33.3167 59.6803 34.4501C61.1348 35.5835 61.8998 37.1797 61.9753 39.2387H55.2034C55.1845 38.672 55.0428 38.2658 54.7784 38.0203C54.5139 37.7747 54.1928 37.6519 53.815 37.6519C53.5506 37.6519 53.3333 37.7464 53.1633 37.9353C52.9933 38.1053 52.9083 38.3508 52.9083 38.672C52.9083 39.1253 53.1539 39.5031 53.645 39.8053C54.155 40.0887 54.9578 40.4381 56.0534 40.8537C57.319 41.326 58.358 41.7793 59.1702 42.2138C60.0014 42.6482 60.7192 43.2527 61.3237 44.0272C61.9281 44.8017 62.2304 45.7745 62.2304 46.9456C62.2304 48.1735 61.9281 49.2785 61.3237 50.2608C60.7192 51.2241 59.8408 51.9797 58.6885 52.5275C57.5363 53.0753 56.1668 53.3492 54.58 53.3492Z" fill="#B20000"/>
<path d="M63.5904 45.1606C63.5904 43.4794 63.8738 42.0249 64.4404 40.7971C65.026 39.5503 65.8194 38.6059 66.8205 37.9636C67.8217 37.3025 68.9456 36.9719 70.1924 36.9719C71.2313 36.9719 72.1285 37.1891 72.8841 37.6236C73.6397 38.0392 74.2159 38.6153 74.6125 39.352V37.1702H80.8745V53.1509H74.6125V50.9691C74.2159 51.7058 73.6397 52.2914 72.8841 52.7259C72.1285 53.1414 71.2313 53.3492 70.1924 53.3492C68.9456 53.3492 67.8217 53.0281 66.8205 52.3859C65.8194 51.7247 65.026 50.7802 64.4404 49.5524C63.8738 48.3057 63.5904 46.8417 63.5904 45.1606ZM74.6125 45.1606C74.6125 44.3105 74.3953 43.6494 73.9608 43.1772C73.5264 42.7049 72.9691 42.4688 72.2891 42.4688C71.6091 42.4688 71.0518 42.7049 70.6174 43.1772C70.1829 43.6494 69.9657 44.3105 69.9657 45.1606C69.9657 46.0106 70.1829 46.6717 70.6174 47.144C71.0518 47.6162 71.6091 47.8523 72.2891 47.8523C72.9691 47.8523 73.5264 47.6162 73.9608 47.144C74.3953 46.6717 74.6125 46.0106 74.6125 45.1606Z" fill="#B20000"/>
<path d="M94.8912 37.0569C96.7235 37.0569 98.1496 37.6708 99.1697 38.8986C100.209 40.1265 100.728 41.7888 100.728 43.8855V53.1509H94.4662V44.6789C94.4662 43.9233 94.2584 43.3283 93.8428 42.8938C93.4461 42.4405 92.9078 42.2138 92.2277 42.2138C91.5288 42.2138 90.981 42.4405 90.5843 42.8938C90.1876 43.3283 89.9893 43.9233 89.9893 44.6789V53.1509H83.6991V37.1702H89.9893V39.607C90.4804 38.8514 91.1321 38.2375 91.9444 37.7653C92.7755 37.293 93.7578 37.0569 94.8912 37.0569Z" fill="#B20000"/>
<path d="M109.208 36.9719C110.247 36.9719 111.144 37.1891 111.899 37.6236C112.655 38.0392 113.231 38.6153 113.628 39.352V37.1702H119.89V52.8675C119.89 54.3598 119.616 55.7199 119.068 56.9477C118.52 58.1755 117.632 59.1578 116.405 59.8945C115.196 60.6312 113.637 60.9995 111.729 60.9995C109.16 60.9995 107.12 60.3951 105.609 59.1861C104.117 57.9961 103.267 56.3716 103.059 54.3126H109.236C109.406 55.1438 110.086 55.5593 111.276 55.5593C112.013 55.5593 112.589 55.3704 113.004 54.9926C113.42 54.6148 113.628 53.9065 113.628 52.8675V50.9691C113.231 51.7058 112.655 52.2914 111.899 52.7259C111.144 53.1414 110.247 53.3492 109.208 53.3492C107.961 53.3492 106.837 53.0281 105.836 52.3859C104.835 51.7247 104.041 50.7802 103.456 49.5524C102.889 48.3057 102.606 46.8417 102.606 45.1606C102.606 43.4794 102.889 42.0249 103.456 40.7971C104.041 39.5503 104.835 38.6059 105.836 37.9636C106.837 37.3025 107.961 36.9719 109.208 36.9719ZM113.628 45.1606C113.628 44.3105 113.411 43.6494 112.976 43.1772C112.542 42.7049 111.984 42.4688 111.304 42.4688C110.624 42.4688 110.067 42.7049 109.633 43.1772C109.198 43.6494 108.981 44.3105 108.981 45.1606C108.981 46.0106 109.198 46.6717 109.633 47.144C110.067 47.6162 110.624 47.8523 111.304 47.8523C111.984 47.8523 112.542 47.6162 112.976 47.144C113.411 46.6717 113.628 46.0106 113.628 45.1606Z" fill="#B20000"/>
<path d="M139.63 37.1702V53.1509H133.34V50.7141C132.849 51.4697 132.187 52.0836 131.356 52.5559C130.544 53.0281 129.571 53.2642 128.438 53.2642C126.606 53.2642 125.17 52.6503 124.131 51.4225C123.111 50.1947 122.601 48.5324 122.601 46.4356V37.1702H128.863V45.6423C128.863 46.3978 129.061 47.0023 129.458 47.4557C129.873 47.8901 130.421 48.1074 131.101 48.1074C131.8 48.1074 132.348 47.8901 132.745 47.4557C133.141 47.0023 133.34 46.3978 133.34 45.6423V37.1702H139.63Z" fill="#B20000"/>
<path d="M157.942 45.0189C157.942 45.4534 157.913 45.8689 157.857 46.2656H147.741C147.836 47.6446 148.412 48.334 149.47 48.334C150.15 48.334 150.641 48.0223 150.943 47.399H157.602C157.375 48.5324 156.893 49.5524 156.157 50.4591C155.439 51.3469 154.523 52.0553 153.408 52.5842C152.312 53.0942 151.104 53.3492 149.781 53.3492C148.195 53.3492 146.778 53.0187 145.531 52.3575C144.303 51.6964 143.34 50.7519 142.641 49.5241C141.961 48.2774 141.621 46.8229 141.621 45.1606C141.621 43.4983 141.961 42.0532 142.641 40.8254C143.34 39.5787 144.303 38.6247 145.531 37.9636C146.778 37.3025 148.195 36.9719 149.781 36.9719C151.368 36.9719 152.775 37.3025 154.003 37.9636C155.25 38.6059 156.213 39.5314 156.893 40.7404C157.592 41.9493 157.942 43.3755 157.942 45.0189ZM151.566 43.5172C151.566 42.9883 151.396 42.5916 151.056 42.3271C150.716 42.0438 150.291 41.9021 149.781 41.9021C148.667 41.9021 148.015 42.4405 147.826 43.5172H151.566Z" fill="#B20000"/>
</svg>
